# xmcd
#
# Track frame offsets:
#	150
#	14653
#	30660
#	47307
#	74113
#	91089
#	114073
#	132385
#	145740
#	158430
#	186459
#
# Disc length: 2821 seconds
#
# Revision: 0
# Processed by: cddbd v1.5.2PL0 Copyright (c) Steve Scherf et al.
# Submitted via: audiograbber 1.83.01
#
DISCID=8d0b030b
DTITLE=The Cousin Brothers - Live at the Melody Inn
DYEAR=2008
DGENRE=Bluegrass
TTITLE0=Scene of the Crime
TTITLE1=Angelina and Brad
TTITLE2=Heavy Metal Band
TTITLE3=Pork
TTITLE4=Wild Country Musk
TTITLE5=Pre-Op Tranny
TTITLE6=Flea Market
TTITLE7=I Can't Wait
TTITLE8=Beer and Donuts
TTITLE9=Cocksucker Red
TTITLE10=Drive-In Movie
EXTD=
EXTT0=
EXTT1=
EXTT2=
EXTT3=
EXTT4=
EXTT5=
EXTT6=
EXTT7=
EXTT8=
EXTT9=
EXTT10=
PLAYORDER=
